<svg width="20" height="15" viewBox="0 0 20 15" fill="none" xmlns="http://www.w3.org/2000/svg">
<path d="M19 0L1 0C0.817759 0.000571331 0.639124 0.0508345 0.483324 0.145378C0.327524 0.239922 0.200459 0.375165 0.115805 0.536552C0.0311508 0.69794 -0.00788583 0.87936 0.00289726 1.06128C0.0136804 1.24321 0.0738741 1.41874 0.177 1.569L9.177 14.569C9.55 15.108 10.448 15.108 10.822 14.569L19.822 1.569C19.9262 1.41906 19.9873 1.24343 19.9986 1.0612C20.01 0.878979 19.9712 0.697122 19.8865 0.535393C19.8018 0.373663 19.6743 0.238246 19.518 0.143856C19.3617 0.0494658 19.1826 -0.000287584 19 0ZM10 12.243L2.908 2L17.092 2L10 12.243Z" fill="black"/>
</svg>
